<?xml version="1.0" encoding="UTF-8" standalone="no"?>
<!-- Created with Inkscape (http://www.inkscape.org/) -->

<svg
   width="220.8726mm"
   height="23.167358mm"
   viewBox="0 0 220.8726 23.167358"
   version="1.1"
   id="svg385"
   inkscape:export-filename="bouding-volume.svg"
   inkscape:export-xdpi="96"
   inkscape:export-ydpi="96"
   xmlns:inkscape="http://www.inkscape.org/namespaces/inkscape"
   xmlns:sodipodi="http://sodipodi.sourceforge.net/DTD/sodipodi-0.dtd"
   xmlns="http://www.w3.org/2000/svg"
   xmlns:svg="http://www.w3.org/2000/svg">
  <sodipodi:namedview
     id="namedview387"
     pagecolor="#ffffff"
     bordercolor="#000000"
     borderopacity="0.25"
     inkscape:showpageshadow="2"
     inkscape:pageopacity="0.0"
     inkscape:pagecheckerboard="0"
     inkscape:deskcolor="#d1d1d1"
     inkscape:document-units="mm"
     showgrid="false" />
  <defs
     id="defs382" />
  <g
     inkscape:label="Camada 1"
     inkscape:groupmode="layer"
     id="layer1"
     transform="translate(3.8362721,-122.45243)">
    <g
       transform="matrix(0.22749936,0,0,0.22749936,-5.8888565,121.18269)"
       id="g11">
      <polygon
         points="60,90 20,70 30,40 70,20 90,60 "
         fill="none"
         stroke="#2c3e50"
         stroke-width="2"
         stroke-dasharray="4"
         id="polygon39-7"
         style="fill:#919191;fill-opacity:1;stroke:none"
         transform="matrix(1.1630069,0,0,1.1630069,-9.1882555,-9.3011207)" />
      <circle
         cx="55"
         cy="55"
         r="45"
         fill="none"
         stroke="#e74c3c"
         stroke-width="2"
         stroke-dasharray="4"
         id="circle7" />
    </g>
    <g
       transform="matrix(0.26458333,0,0,0.26458333,42.174684,119.37749)"
       id="g19">
      <polygon
         points="30,40 70,20 90,60 60,90 20,70 "
         fill="none"
         stroke="#2c3e50"
         stroke-width="2"
         stroke-dasharray="4"
         id="polygon39-7-5"
         style="fill:#919191;fill-opacity:1;stroke:none"
         transform="translate(-0.56751048,0.89389663)" />
      <rect
         x="20"
         y="20"
         width="70"
         height="70"
         fill="none"
         stroke="#27ae60"
         stroke-width="2"
         stroke-dasharray="4"
         id="rect15" />
    </g>
    <g
       transform="matrix(0.26458333,0,0,0.26458333,92.445517,119.37749)"
       id="g27">
      <polygon
         points="90,60 60,90 20,70 30,40 70,20 "
         fill="none"
         stroke="#2c3e50"
         stroke-width="2"
         stroke-dasharray="4"
         id="polygon39-7-5-9"
         style="fill:#919191;fill-opacity:1;stroke:none"
         transform="translate(3.0871908,-5.6785135)" />
      <rect
         x="21.318794"
         y="24.140581"
         width="69.718651"
         height="62.438351"
         fill="none"
         stroke="#f39c12"
         stroke-width="2"
         stroke-dasharray="4"
         transform="rotate(-25,55.00007,55.000033)"
         id="rect23"
         ry="0" />
    </g>
    <g
       transform="matrix(0.26458333,0,0,0.26458333,142.71635,119.37749)"
       id="g35">
      <polygon
         points="20,70 30,40 70,20 90,60 60,90 "
         fill="none"
         stroke="#2c3e50"
         stroke-width="2"
         stroke-dasharray="4"
         id="polygon39-7-5-9-7"
         style="fill:#919191;fill-opacity:1;stroke:none"
         transform="translate(0.65280206,0.89385663)" />
      <path
         d="M 40,20 H 70 L 90,40 V 60 L 75,90 H 45 L 20,70 V 40 Z"
         fill="none"
         stroke="#8e44ad"
         stroke-width="2"
         stroke-dasharray="4"
         id="path31"
         transform="translate(2.0472442e-6)" />
    </g>
    <g
       transform="matrix(0.26458333,0,0,0.26458333,192.98718,119.37749)"
       id="g43">
      <polygon
         points="70,20 90,60 60,90 20,70 30,40 "
         fill="none"
         stroke="#2c3e50"
         stroke-width="2"
         stroke-dasharray="4"
         id="polygon39-7-5-9-7-3"
         style="fill:#919191;fill-opacity:1;stroke:none"
         transform="translate(0.24071465,-0.11724339)" />
      <polygon
         points="70,20 90,60 60,90 20,70 30,40 "
         fill="none"
         stroke="#2c3e50"
         stroke-width="2"
         stroke-dasharray="4"
         id="polygon39"
         transform="translate(4.6456692e-6)" />
    </g>
  </g>
</svg>
