<?xml version="1.0" encoding="UTF-8" standalone="no"?>
<!-- Created with Inkscape (http://www.inkscape.org/) -->

<svg
   width="190.29231mm"
   height="70.651619mm"
   viewBox="0 0 190.29232 70.651619"
   version="1.1"
   id="svg1"
   xmlns="http://www.w3.org/2000/svg"
   xmlns:svg="http://www.w3.org/2000/svg">
  <defs
     id="defs1" />
  <g
     id="layer1"
     transform="translate(-2.4683638,-79.635785)">
    <path
       style="fill:#cfcfcf;fill-opacity:1;stroke:#000000;stroke-width:0.4;stroke-opacity:1"
       d="m 3.1447686,124.08064 9.2465764,-9.24657 -5.9178084,-12.9452 21.0821904,2.9589 -3.698629,12.94521 21.08219,-11.83562 6.657536,14.42466 -9.246576,12.9452 -18.123286,-8.50685 1.849313,17.38356 -15.904109,4.0685 z"
       id="path1" />
    <path
       style="fill:#cfcfcf;fill-opacity:1;stroke:#000000;stroke-width:0.4;stroke-opacity:1"
       d="m 54.863534,101.9949 -9.61644,-11.835611 13.684932,-9.9863 21.821908,2.21918 9.616442,22.931501 -15.534237,26.63013 -21.821921,-2.9589 4.068492,-10.72603 10.356169,-3.32876 7.02739,-14.42466 -9.24657,-5.547951 z"
       id="path2" />
    <rect
       style="fill:none;stroke:#000000;stroke-width:0.4;stroke-opacity:1"
       id="rect4"
       width="49.067509"
       height="45.38747"
       x="2.6683638"
       y="101.44862" />
    <rect
       style="fill:none;stroke:#000000;stroke-width:0.4;stroke-opacity:1"
       id="rect5"
       width="45.863014"
       height="52.243145"
       x="44.939289"
       y="79.835785" />
    <path
       style="fill:#cfcfcf;fill-opacity:1;stroke:#000000;stroke-width:0.4;stroke-opacity:1"
       d="m 112.2534,106.18117 9.24658,-9.246567 -5.91781,-12.9452 21.08219,2.9589 -3.69863,12.94521 21.08219,-11.83562 6.65754,14.424657 -9.24658,12.9452 -18.12328,-8.50685 1.84931,17.38356 -15.90411,4.0685 z"
       id="path1-3" />
    <path
       style="fill:#cfcfcf;fill-opacity:1;stroke:#000000;stroke-width:0.4;stroke-opacity:1"
       d="m 156.6219,120.00337 -9.61644,-11.83561 13.68493,-9.986302 21.82191,2.219182 9.61644,22.9315 -15.53424,26.63013 -21.82192,-2.9589 4.06849,-10.72603 10.35617,-3.32876 7.02739,-14.42466 -9.24657,-5.54795 z"
       id="path2-6" />
    <rect
       style="fill:none;stroke:#000000;stroke-width:0.4;stroke-opacity:1"
       id="rect4-7"
       width="49.067509"
       height="45.38747"
       x="111.777"
       y="83.549149" />
    <rect
       style="fill:none;stroke:#000000;stroke-width:0.4;stroke-opacity:1"
       id="rect5-5"
       width="45.863014"
       height="52.243145"
       x="146.69766"
       y="97.844254" />
  </g>
</svg>
