<?xml version="1.0" encoding="UTF-8" standalone="no"?>
<!-- Created with Inkscape (http://www.inkscape.org/) -->

<svg
   width="201.67345mm"
   height="172.4857mm"
   viewBox="0 0 201.67345 172.4857"
   version="1.1"
   id="svg1"
   xmlns="http://www.w3.org/2000/svg"
   xmlns:svg="http://www.w3.org/2000/svg">
  <defs
     id="defs1" />
  <g
     id="layer1"
     transform="translate(11.18858,-82.69679)">
    <path
       style="fill:#cfcfcf;fill-opacity:1;stroke:#000000;stroke-width:0.4;stroke-opacity:1"
       d="m 102.62734,127.14164 9.24658,-9.24657 -5.91781,-12.9452 21.08219,2.9589 -3.69863,12.94521 21.08219,-11.83562 6.65754,14.42466 -9.24658,12.9452 -18.12328,-8.50685 1.84931,17.38356 -15.90411,4.0685 z"
       id="path1" />
    <path
       style="fill:#cfcfcf;fill-opacity:1;stroke:#000000;stroke-width:0.4;stroke-opacity:1"
       d="m 154.34611,105.0559 -9.61644,-11.835609 13.68493,-9.9863 21.82191,2.21918 9.61644,22.931499 -15.53423,26.63013 -21.82193,-2.9589 4.0685,-10.72603 10.35617,-3.32876 7.02739,-14.42466 -9.24657,-5.547949 z"
       id="path2" />
    <rect
       style="fill:none;stroke:#000000;stroke-width:0.4;stroke-opacity:1"
       id="rect4"
       width="49.067509"
       height="45.38747"
       x="102.15094"
       y="104.50963" />
    <rect
       style="fill:none;stroke:#000000;stroke-width:0.4;stroke-opacity:1"
       id="rect5"
       width="45.863014"
       height="52.243145"
       x="144.42186"
       y="82.89679" />
    <path
       style="fill:#cfcfcf;fill-opacity:1;stroke:#000000;stroke-width:0.4;stroke-opacity:1"
       d="m -10.512179,127.11252 9.2465795,-9.24657 -5.91781,-12.9452 21.0821905,2.9589 -3.69863,12.94521 21.08219,-11.83562 6.657542,14.42466 -9.246582,12.9452 -18.12328,-8.50685 1.84931,17.38356 -15.9041105,4.0685 z"
       id="path1-5" />
    <path
       style="fill:#cfcfcf;fill-opacity:1;stroke:#000000;stroke-width:0.4;stroke-opacity:1"
       d="m 54.470936,106.04711 -9.616442,-11.835616 13.684932,-9.9863 21.82191,2.21918 9.61644,22.931506 -15.53423,26.63013 -21.82193,-2.9589 4.0685,-10.72603 10.35617,-3.32876 7.02739,-14.42466 -9.24657,-5.547956 z"
       id="path2-62" />
    <rect
       style="fill:none;stroke:#000000;stroke-width:0.4;stroke-opacity:1"
       id="rect4-9"
       width="49.067509"
       height="45.38747"
       x="-10.98858"
       y="104.4805" />
    <rect
       style="fill:none;stroke:#000000;stroke-width:0.4;stroke-opacity:1"
       id="rect5-1"
       width="45.863014"
       height="52.243145"
       x="44.546684"
       y="83.887993" />
    <path
       style="fill:#cfcfcf;fill-opacity:1;stroke:#000000;stroke-width:0.4;stroke-opacity:1"
       d="m 61.380987,201.03856 9.24658,-9.24657 -5.91781,-12.9452 21.08219,2.9589 -3.69863,12.94521 21.082193,-11.83562 6.65754,14.42466 -9.24658,12.9452 -18.123283,-8.50685 1.84931,17.38356 -15.90411,4.0685 z"
       id="path1-3" />
    <path
       style="fill:#cfcfcf;fill-opacity:1;stroke:#000000;stroke-width:0.4;stroke-opacity:1"
       d="m 105.74949,214.86076 -9.616445,-11.83561 13.684935,-9.9863 21.82191,2.21918 9.61644,22.9315 -15.53424,26.63013 -21.82192,-2.9589 4.06849,-10.72603 10.35617,-3.32876 7.02739,-14.42466 -9.24657,-5.54795 z"
       id="path2-6" />
    <rect
       style="fill:none;stroke:#000000;stroke-width:0.4;stroke-opacity:1"
       id="rect4-7"
       width="49.067509"
       height="45.38747"
       x="60.904587"
       y="178.40654" />
    <rect
       style="fill:none;stroke:#000000;stroke-width:0.4;stroke-opacity:1"
       id="rect5-5"
       width="45.863014"
       height="52.243145"
       x="95.825249"
       y="192.70164" />
  </g>
  <text
     xml:space="preserve"
     style="font-size:4.93889px;fill:#000000;fill-opacity:1;stroke-width:0.264583"
     x="53.234642"
     y="75.940971"
     id="text354"><tspan
       id="tspan352"
       style="font-size:4.93889px;fill:#000000;fill-opacity:1;stroke-width:0.264583"
       x="53.234642"
       y="75.940971">(A)</tspan></text>
  <text
     xml:space="preserve"
     style="font-size:4.93889px;fill:#000000;fill-opacity:1;stroke-width:0.264583"
     x="160.98448"
     y="75.93145"
     id="text358"><tspan
       id="tspan356"
       style="font-size:4.93889px;fill:#000000;fill-opacity:1;stroke-width:0.264583"
       x="160.98448"
       y="75.93145">(B)</tspan></text>
  <text
     xml:space="preserve"
     style="font-size:4.93889px;fill:#000000;fill-opacity:1;stroke-width:0.264583"
     x="109.57922"
     y="171.70537"
     id="text362"><tspan
       id="tspan360"
       style="font-size:4.93889px;fill:#000000;fill-opacity:1;stroke-width:0.264583"
       x="109.57922"
       y="171.70537">(C)</tspan></text>
</svg>
