<svg width="400" height="400" viewBox="0 0 400 400" xmlns="http://www.w3.org/2000/svg">
  <rect width="400" height="400" fill="white" />
  
  <g stroke="black" stroke-width="1" stroke-dasharray="4">
    <line x1="100" y1="0" x2="100" y2="400" />
    <line x1="200" y1="0" x2="200" y2="400" />
    <line x1="300" y1="0" x2="300" y2="400" />
    <line x1="0" y1="100" x2="400" y2="100" />
    <line x1="0" y1="200" x2="400" y2="200" />
    <line x1="0" y1="300" x2="400" y2="300" />
    <rect x="0" y="0" width="400" height="400" fill="none" stroke-dasharray="0" />
  </g>

  <g fill="black">
    <rect x="60" y="30" width="25" height="15" />
    <polygon points="40,85 60,85 50,65" />
    
    <rect x="105" y="60" width="15" height="25" />
    <polygon points="310,30 335,25 345,50 325,65 305,50" /> <rect x="18" y="215" width="35" height="25" />
    <polygon points="65,175 85,160 85,190" />
    
    <rect x="100" y="205" width="25" height="18" />
    <polygon points="100,250 120,280 80,280" />
    <rect x="145" y="245" width="18" height="25" />
    <rect x="128" y="300" width="10" height="25" />

    <rect x="225" y="105" width="25" height="30" />
    <rect x="220" y="160" width="10" height="25" />
    <polygon points="280,180 300,210 260,210" /> <rect x="325" y="210" width="28" height="18" />
    <rect x="370" y="208" width="18" height="25" />
    <rect x="328" y="295" width="25" height="25" />
  </g>
</svg>
